<svg width="69" height="60" viewBox="0 0 69 60" fill="none" xmlns="http://www.w3.org/2000/svg">
<path d="M69 24.4592C69 11.0043 65.0384 0.088259 60.1404 0.00200885C60.16 0.00160706 60.1793 0 60.1991 0H54.6103C54.6103 0 41.4841 9.79931 22.5879 13.6443C22.0111 16.6772 21.6425 20.2921 21.6425 24.4592C21.6425 28.6262 22.0109 32.241 22.5879 35.2739C41.484 39.1189 54.6103 48.9183 54.6103 48.9183H60.1991C60.1795 48.9183 60.1602 48.9167 60.1404 48.9162C65.0388 48.8299 69 37.9141 69 24.4592ZM58.2743 45.2179C57.6421 45.2179 56.9582 44.5655 56.6068 44.1767C55.7558 43.2349 54.9363 41.7687 54.2358 39.936C52.6687 35.8356 51.8055 30.3393 51.8055 24.4589C51.8055 18.5787 52.6687 13.0823 54.2358 8.98194C54.9361 7.14926 55.756 5.68287 56.6068 4.74122C56.9582 4.35202 57.6421 3.69978 58.2743 3.69978C58.9065 3.69978 59.5907 4.35229 59.9416 4.74122C60.7929 5.683 61.6124 7.14912 62.3127 8.98194C63.8798 13.0822 64.743 18.5787 64.743 24.4589C64.743 30.3386 63.8798 35.8353 62.3127 39.936C61.6126 41.7687 60.7924 43.2349 59.9416 44.1767C59.5907 44.5655 58.9066 45.2179 58.2743 45.2179ZM16.9678 24.4592C16.9678 20.9804 17.2245 17.6 17.7125 14.4752C14.5205 14.914 11.7194 15.1665 8.25601 15.1665C3.73746 15.1665 3.73746 15.1665 3.73746 15.1665L0 21.5071V27.4114L3.73705 33.7519C3.73705 33.7519 3.73705 33.7519 8.25574 33.7519C11.7191 33.7519 14.5202 34.0047 17.7122 34.4433C17.2247 31.3185 16.9678 27.938 16.9678 24.4592ZM24.807 38.717L16.1821 37.0757L21.6969 58.6077C21.9823 59.7216 23.0947 60.2843 24.1689 59.8568L32.1575 56.6792C33.2319 56.2523 33.662 55.0745 33.1141 54.062L24.807 38.717ZM58.2743 32.4597C58.0305 32.4597 57.767 32.2083 57.6316 32.0584C57.3034 31.6955 56.9877 31.1303 56.7177 30.4239C56.1138 28.8436 55.7811 26.7252 55.7811 24.4589C55.7811 22.1925 56.1138 20.0742 56.7177 18.4938C56.9877 17.7875 57.3037 17.2223 57.6316 16.8594C57.767 16.7094 58.0305 16.458 58.2743 16.458C58.5179 16.458 58.7817 16.7095 58.917 16.8594C59.2451 17.2223 59.5609 17.7874 59.8307 18.4938C60.4347 20.0741 60.7674 22.1925 60.7674 24.4589C60.7674 26.7251 60.4347 28.8436 59.8307 30.4239C59.5609 31.1303 59.2447 31.6955 58.917 32.0584C58.7817 32.2083 58.5181 32.4597 58.2743 32.4597Z" fill="white"/>
</svg>
