<svg width="60" height="60" viewBox="0 0 60 60" fill="none" xmlns="http://www.w3.org/2000/svg">
<path d="M30 0C13.4314 0 0 4.1973 0 9.375V15L22.5 37.5V56.25C22.5 58.3211 25.8578 60 30 60C34.1422 60 37.5 58.3211 37.5 56.25V37.5L60 15V9.375C60 4.1973 46.5686 0 30 0ZM5.53031 8.13422C6.93328 7.33395 8.90426 6.57445 11.2302 5.93766C16.3832 4.52695 23.049 3.75 30 3.75C36.951 3.75 43.6168 4.52695 48.7698 5.93766C51.0957 6.57445 53.0667 7.33395 54.4698 8.13422C55.3951 8.66191 55.895 9.10828 56.1278 9.375C55.895 9.64172 55.395 10.088 54.4698 10.6158C53.0667 11.4161 51.0957 12.1755 48.7698 12.8123C43.617 14.223 36.951 15 30 15C23.049 15 16.3832 14.223 11.2302 12.8123C8.90426 12.1755 6.93328 11.4161 5.53031 10.6158C4.605 10.088 4.10508 9.64172 3.87223 9.375C4.10508 9.10828 4.605 8.66203 5.53031 8.13422Z" fill="white"/>
</svg>
